<?xml version="1.0" standalone="no"?>
<!DOCTYPE svg PUBLIC "-//W3C//DTD SVG 20010904//EN"
 "http://www.w3.org/TR/2001/REC-SVG-20010904/DTD/svg10.dtd">
<svg version="1.0" xmlns="http://www.w3.org/2000/svg"
 width="398.000000pt" height="372.000000pt" viewBox="0 0 398.000000 372.000000"
 preserveAspectRatio="xMidYMid meet">

<g transform="translate(0.000000,372.000000) scale(0.100000,-0.100000)"
fill="#000000" stroke="none">
<path d="M1904 3465 c-51 -23 -102 -87 -109 -140 -4 -25 -5 -59 -1 -75 9 -49
53 -108 96 -130 l40 -20 0 -160 0 -160 -180 0 -180 0 0 80 c0 66 3 80 15 80 9
0 38 22 65 49 39 39 50 57 55 94 18 118 -55 215 -169 225 -202 17 -288 -243
-117 -350 l51 -31 0 -72 0 -72 -90 -6 c-127 -9 -188 -45 -245 -141 -21 -36
-27 -63 -32 -135 l-6 -91 -76 0 c-75 0 -76 0 -90 31 -49 110 -190 145 -289 72
-100 -75 -95 -241 10 -310 35 -23 52 -28 107 -28 85 0 139 34 173 108 12 26
16 27 90 27 l78 0 0 -180 0 -180 -163 0 -163 0 -12 35 c-7 19 -31 49 -54 67
-38 29 -47 32 -113 33 -63 0 -77 -3 -113 -29 -111 -77 -108 -238 6 -317 29
-19 48 -24 102 -24 56 0 73 4 109 28 28 18 49 43 60 68 l16 39 163 0 162 0 0
-180 0 -180 -78 0 c-74 0 -78 1 -90 28 -34 73 -88 107 -173 107 -82 0 -136
-31 -168 -97 -72 -149 54 -313 209 -273 25 6 54 17 66 23 23 12 74 81 74 100
0 8 24 12 79 12 l78 0 7 -92 c5 -73 11 -100 33 -137 55 -95 117 -130 244 -138
l89 -6 0 -73 c0 -73 0 -74 -32 -90 -52 -26 -76 -54 -98 -111 -17 -47 -19 -60
-9 -101 24 -96 94 -152 191 -152 121 0 204 106 183 232 -6 31 -19 53 -56 90
-26 26 -55 48 -64 48 -12 0 -15 14 -15 80 l0 80 180 0 180 0 0 -160 0 -160
-39 -20 c-22 -11 -52 -36 -68 -56 -24 -32 -27 -45 -28 -109 0 -63 3 -77 29
-113 50 -72 147 -101 228 -68 54 23 105 86 113 139 14 89 -28 177 -96 206
l-39 16 0 163 0 162 180 0 180 0 0 -78 c0 -74 -1 -78 -27 -90 -74 -34 -108
-88 -108 -173 0 -54 5 -72 27 -106 51 -77 164 -106 248 -63 136 69 131 272 -8
344 -32 16 -32 17 -32 90 l0 73 89 6 c97 7 141 25 197 78 53 51 74 102 81 200
l6 89 77 0 c75 0 78 -1 84 -25 4 -14 25 -43 47 -65 45 -43 98 -58 172 -46 158
26 200 249 65 342 -35 25 -51 29 -107 29 -85 0 -139 -34 -173 -107 -12 -27
-16 -28 -90 -28 l-78 0 0 180 0 180 160 0 160 0 20 -40 c36 -71 128 -112 215
-96 44 9 111 67 131 114 33 80 3 179 -68 229 -36 25 -50 28 -113 28 -64 -1
-77 -4 -109 -28 -20 -16 -45 -46 -56 -68 l-20 -39 -160 0 -160 0 0 180 0 180
80 0 c66 0 80 -3 80 -15 0 -27 92 -111 129 -118 56 -12 93 -8 137 13 122 60
140 242 32 323 -97 72 -237 41 -285 -63 l-18 -39 -76 -1 -76 0 -6 90 c-9 127
-45 188 -141 245 -36 21 -63 27 -135 32 l-91 6 0 77 c0 76 1 78 27 85 44 11
101 79 109 131 15 102 -23 180 -104 216 -118 52 -251 -19 -268 -143 -12 -86
32 -168 107 -201 28 -13 29 -14 29 -90 l0 -78 -180 0 -180 0 0 160 0 160 40
20 c62 32 94 90 95 170 0 66 -20 111 -65 148 -49 41 -137 53 -196 27z m137
-114 c67 -68 7 -168 -89 -146 -32 7 -62 50 -62 88 0 14 12 39 26 56 35 42 84
43 125 2z m-457 -172 c31 -37 33 -71 6 -110 -41 -57 -141 -42 -155 23 -16 70
20 118 86 118 29 0 43 -7 63 -31z m913 13 c74 -58 20 -175 -72 -158 -41 8 -75
48 -75 87 0 15 12 41 26 58 20 24 34 31 62 31 21 0 47 -8 59 -18z m184 -542
c20 -13 45 -40 55 -59 18 -33 19 -70 19 -695 l0 -661 -23 -32 c-12 -18 -37
-43 -55 -55 l-32 -23 -655 -3 -655 -3 -45 23 c-33 17 -51 35 -67 68 l-23 44 0
646 0 646 23 44 c16 33 34 51 67 68 l45 23 655 -3 655 -3 36 -25z m-1855 -224
c9 -9 18 -34 21 -56 5 -34 1 -43 -25 -70 -59 -59 -151 -24 -152 58 0 65 34 95
102 88 21 -2 45 -11 54 -20z m2439 -1 c38 -37 35 -95 -6 -129 -42 -36 -82 -34
-121 4 -27 27 -30 36 -25 71 7 52 38 79 89 79 28 0 46 -7 63 -25z m-2625 -450
c52 -27 52 -117 1 -148 -41 -24 -75 -21 -110 9 -44 37 -44 91 0 128 35 29 67
33 109 11z m2773 3 c33 -17 46 -39 46 -78 0 -39 -13 -61 -46 -78 -49 -27 -112
-4 -128 47 -25 79 56 148 128 109z m-2600 -468 c55 -43 39 -141 -25 -155 -69
-16 -118 20 -118 85 1 76 83 117 143 70z m2430 8 c12 -6 27 -18 34 -27 19 -24
15 -83 -7 -111 -15 -21 -27 -25 -68 -25 -64 0 -87 22 -87 83 0 36 5 48 28 68
31 26 66 31 100 12z m-1655 -783 c29 -35 28 -76 -4 -114 -44 -53 -130 -36
-153 30 -15 43 8 94 49 112 30 12 85 -2 108 -28z m917 11 c29 -28 35 -63 20
-100 -18 -41 -41 -56 -88 -56 -27 0 -41 7 -61 31 -58 68 -8 156 82 144 18 -2
39 -10 47 -19z m-459 -170 c9 -9 18 -34 21 -54 7 -54 -33 -102 -85 -102 -54 1
-92 38 -92 90 0 28 29 78 49 84 29 9 90 -2 107 -18z"/>
<path d="M1940 2400 c-343 -5 -344 -6 -402 -67 -56 -59 -58 -73 -58 -435 0
-367 2 -380 66 -440 60 -56 74 -58 434 -58 360 0 374 2 434 58 63 60 66 73 66
432 0 197 -4 340 -11 363 -12 44 -59 101 -101 123 -50 26 -107 29 -428 24z
m407 -133 l28 -27 0 -340 0 -340 -28 -27 -27 -28 -340 0 -340 0 -27 30 -28 30
0 336 c0 323 1 338 20 359 11 12 29 26 40 31 11 4 167 7 347 6 l328 -2 27 -28z"/>
</g>
</svg>
