<?xml version="1.0" standalone="no"?>
<!DOCTYPE svg PUBLIC "-//W3C//DTD SVG 20010904//EN"
 "http://www.w3.org/TR/2001/REC-SVG-20010904/DTD/svg10.dtd">
<svg version="1.0" xmlns="http://www.w3.org/2000/svg"
 width="282.000000pt" height="277.000000pt" viewBox="0 0 282.000000 277.000000"
 preserveAspectRatio="xMidYMid meet">

<g transform="translate(0.000000,277.000000) scale(0.100000,-0.100000)"
fill="#000000" stroke="none">
<path d="M230 2679 c-144 -60 -160 -248 -28 -329 92 -56 224 -12 260 86 l12
34 269 0 c295 0 317 -4 350 -59 12 -21 17 -52 17 -114 l0 -86 -204 -3 -204 -3
-39 -31 c-65 -52 -73 -79 -73 -241 l0 -143 -59 0 c-53 0 -60 3 -67 22 -12 38
-44 74 -86 98 -32 18 -51 21 -98 18 -157 -11 -224 -188 -116 -306 50 -56 143
-69 216 -32 38 19 90 81 90 107 0 9 18 13 60 13 l60 0 0 -340 0 -340 -57 0
c-58 1 -58 1 -76 40 -27 58 -77 93 -142 98 -68 6 -96 -1 -135 -34 -81 -69 -91
-191 -22 -267 81 -90 236 -70 293 37 l24 46 57 0 57 0 3 -153 c3 -151 4 -154
31 -190 53 -70 81 -77 297 -77 l190 0 0 -86 c0 -63 -5 -94 -17 -115 -33 -55
-54 -59 -351 -59 l-270 0 -6 25 c-10 40 -76 102 -124 114 -148 40 -276 -111
-214 -252 30 -67 87 -102 168 -102 54 0 67 4 101 31 21 16 47 49 58 72 l20 41
279 1 c264 0 282 1 324 21 26 13 54 38 70 62 24 35 28 53 32 141 l5 101 245 0
245 0 5 -101 c4 -88 8 -106 32 -141 16 -24 44 -49 70 -62 42 -20 59 -21 325
-21 l281 0 6 -24 c9 -36 53 -84 99 -108 146 -74 312 95 237 241 -38 75 -121
119 -195 105 -51 -9 -115 -59 -134 -105 l-16 -40 -283 3 -284 3 -34 37 c-33
37 -34 39 -34 128 l0 90 193 0 c217 0 237 5 291 73 l31 39 3 154 3 154 57 0
57 0 27 -49 c45 -83 152 -115 236 -72 120 61 136 217 32 305 -39 33 -67 40
-135 34 -65 -5 -115 -40 -142 -98 -18 -39 -18 -39 -75 -40 l-58 0 0 340 0 340
60 0 c44 0 60 -4 60 -13 0 -26 58 -94 95 -111 71 -34 162 -19 211 36 68 73 70
181 6 251 -87 96 -268 60 -306 -61 -7 -19 -14 -22 -66 -22 l-59 0 -3 154 -3
154 -31 39 c-54 68 -74 73 -291 73 l-193 0 0 90 c0 89 1 91 34 128 l34 37 284
3 283 3 16 -40 c19 -46 83 -96 134 -105 111 -21 223 83 213 196 -12 122 -139
200 -250 153 -41 -16 -95 -74 -104 -110 l-6 -25 -281 0 c-266 0 -283 -1 -325
-21 -26 -13 -54 -38 -70 -62 -24 -35 -28 -53 -32 -141 l-5 -101 -245 0 -245 0
-5 101 c-4 88 -8 106 -32 141 -16 24 -44 49 -70 62 -42 20 -60 21 -324 21
l-279 1 -20 41 c-30 63 -83 101 -147 105 -29 1 -64 -2 -78 -8z m110 -74 c41
-21 60 -53 60 -103 0 -62 -40 -102 -103 -102 -87 0 -136 74 -103 154 24 57 90
80 146 51z m2276 0 c42 -17 69 -71 59 -121 -15 -81 -127 -114 -186 -55 -65 66
-18 187 74 190 10 1 33 -6 53 -14z m-476 -480 c62 -32 60 -8 60 -755 0 -747 2
-723 -60 -755 -44 -23 -1376 -23 -1420 0 -62 32 -60 8 -60 755 0 744 -2 722
58 754 41 23 1379 23 1422 1z m-1774 -299 c28 -28 34 -41 34 -77 -1 -123 -163
-152 -210 -39 -29 70 29 150 109 150 24 0 42 -9 67 -34z m2261 14 c64 -38 66
-132 5 -180 -46 -37 -131 -20 -158 31 -25 50 -18 97 20 135 40 40 83 45 133
14z m-2278 -754 c33 -17 51 -54 51 -102 0 -49 -54 -104 -101 -104 -110 0 -157
133 -71 200 29 23 82 26 121 6z m2283 -6 c86 -67 39 -200 -70 -200 -50 0 -102
55 -102 107 1 71 42 112 111 113 21 0 47 -8 61 -20z m-2261 -769 c23 -24 29
-38 29 -74 0 -80 -65 -131 -141 -108 -49 15 -74 51 -74 109 0 37 5 48 33 73
46 41 111 41 153 0z m2268 3 c85 -72 16 -210 -95 -189 -81 15 -114 127 -55
186 40 39 105 41 150 3z"/>
<path d="M1118 2048 c-48 -13 -113 -69 -134 -118 -12 -26 -33 -49 -65 -69 -68
-42 -102 -98 -107 -174 -3 -47 -10 -68 -28 -87 -62 -67 -76 -184 -31 -269 25
-49 25 -52 10 -88 -20 -50 -20 -138 1 -188 29 -69 93 -122 176 -148 9 -3 21
-27 28 -54 37 -142 200 -213 325 -140 26 15 60 47 75 69 l27 42 3 533 c2 485
1 537 -14 570 -25 51 -79 99 -132 117 -51 18 -80 19 -134 4z m143 -91 c70 -47
69 -35 69 -590 0 -538 1 -525 -54 -576 -37 -35 -127 -41 -174 -11 -35 21 -81
106 -65 119 4 4 29 15 54 25 77 28 111 82 68 109 -11 7 -27 1 -62 -24 -82 -57
-183 -42 -243 36 -32 42 -42 114 -24 169 17 53 82 104 141 112 36 5 50 12 55
26 18 59 -86 63 -167 7 -23 -16 -28 -17 -39 -4 -27 33 -25 140 5 179 14 18 15
18 44 -13 21 -22 38 -31 53 -29 33 4 36 44 5 77 -52 55 -60 106 -28 169 22 44
84 82 132 82 19 0 54 -11 78 -25 23 -14 51 -25 61 -25 23 0 33 26 19 52 -10
19 -101 68 -126 68 -16 0 -16 6 -2 31 31 58 138 78 200 36z"/>
<path d="M1604 2044 c-23 -8 -58 -31 -77 -50 -71 -71 -68 -44 -65 -637 l3
-534 29 -42 c109 -157 350 -114 398 72 7 27 19 51 28 54 82 25 148 81 177 151
20 47 19 138 -1 186 -15 36 -15 40 3 70 51 82 45 192 -14 270 -26 35 -33 54
-37 103 -5 76 -40 133 -107 174 -32 20 -53 43 -65 69 -23 52 -86 105 -141 119
-56 14 -80 13 -131 -5z m153 -83 c21 -11 53 -48 53 -62 0 -3 -19 -11 -42 -18
-74 -22 -115 -61 -102 -95 9 -23 35 -20 85 9 24 14 59 25 77 25 51 0 109 -35
132 -80 33 -65 25 -115 -27 -171 -31 -33 -28 -73 5 -77 15 -2 32 7 53 29 30
32 32 33 45 14 29 -39 31 -147 4 -180 -11 -13 -16 -12 -39 4 -59 41 -153 55
-165 25 -11 -29 3 -54 32 -54 36 -1 102 -32 129 -61 100 -110 17 -293 -133
-293 -44 0 -61 5 -101 33 -35 25 -51 31 -62 24 -44 -28 -9 -81 75 -113 54 -20
58 -34 27 -93 -24 -47 -69 -69 -135 -64 -62 4 -96 25 -124 79 -20 39 -21 1003
0 1051 35 83 130 113 213 68z"/>
</g>
</svg>
