<?xml version="1.0" standalone="no"?>
<!DOCTYPE svg PUBLIC "-//W3C//DTD SVG 20010904//EN"
 "http://www.w3.org/TR/2001/REC-SVG-20010904/DTD/svg10.dtd">
<svg version="1.0" xmlns="http://www.w3.org/2000/svg"
 width="198.000000pt" height="181.000000pt" viewBox="0 0 198.000000 181.000000"
 preserveAspectRatio="xMidYMid meet">

<g transform="translate(0.000000,181.000000) scale(0.100000,-0.100000)"
fill="#000000" stroke="none">
<path d="M1196 1615 l-23 -25 -196 0 c-170 0 -298 -9 -373 -25 -15 -3 -35 -35
-73 -115 -53 -110 -71 -128 -71 -66 0 33 0 33 -57 40 -48 6 -60 4 -71 -11 -19
-26 -11 -34 47 -52 30 -9 59 -24 65 -34 12 -20 6 -26 -54 -59 -19 -11 -39 -35
-51 -64 -20 -44 -20 -49 -5 -187 9 -78 19 -185 23 -237 l8 -95 128 -3 127 -3
12 26 c8 19 8 31 0 50 -11 24 -16 25 -92 25 -52 0 -79 4 -75 10 4 6 120 10
316 10 l310 0 58 -55 58 -55 70 0 c56 0 75 -4 93 -20 29 -25 72 -26 93 -2 21
23 22 75 1 92 -24 21 -75 16 -95 -8 -14 -18 -28 -22 -81 -22 l-64 0 -54 55
-54 55 -83 0 -83 0 0 55 0 55 50 0 c41 0 60 -7 103 -35 42 -29 61 -35 102 -35
48 0 53 3 105 55 l54 55 66 0 c53 0 69 -4 83 -20 34 -41 107 -10 107 45 0 32
-33 65 -65 65 -14 0 -34 -11 -47 -25 -19 -22 -29 -25 -93 -25 l-72 0 -52 -55
c-65 -68 -92 -71 -168 -20 -45 30 -60 35 -113 35 l-60 0 0 49 c0 59 2 60 112
59 63 0 83 -4 104 -20 34 -27 73 -26 96 2 23 29 23 55 -2 80 -26 26 -72 26
-95 0 -16 -17 -31 -20 -117 -20 l-98 0 0 35 0 35 62 0 61 0 63 60 62 60 67 0
c57 0 72 -4 97 -25 36 -30 48 -31 82 -4 48 38 20 109 -44 109 -19 0 -34 -7
-42 -20 -11 -17 -24 -20 -98 -20 l-86 0 -54 -56 -55 -56 -230 5 c-208 5 -325
18 -325 35 0 3 21 55 47 114 35 80 52 110 67 113 70 15 225 25 379 25 164 0
181 -2 204 -20 14 -11 31 -20 38 -20 23 0 65 41 65 64 0 63 -70 88 -114 41z
m74 -20 c17 -21 5 -45 -24 -45 -27 0 -42 26 -25 46 15 18 33 18 49 -1z m158
-227 c16 -16 15 -23 -4 -42 -12 -12 -20 -13 -35 -6 -10 6 -19 16 -19 23 0 16
20 37 35 37 6 0 16 -5 23 -12z m-895 -235 c54 -20 101 -43 104 -50 3 -8 -3
-23 -12 -33 -14 -16 -31 -20 -82 -20 -58 0 -66 3 -103 36 -39 35 -47 55 -34
88 8 22 13 21 127 -21z m706 -1 c12 -22 -3 -42 -31 -42 -21 0 -33 22 -24 45 8
21 43 19 55 -3z m-309 -82 l0 -30 -115 0 c-118 0 -126 3 -103 40 11 18 24 20
115 20 l103 0 0 -30z m654 -23 c9 -15 7 -21 -8 -32 -35 -26 -74 13 -44 43 16
16 38 12 52 -11z m-654 -117 l0 -40 -134 0 c-152 0 -173 9 -145 63 9 15 26 17
144 17 l135 0 0 -40z m515 -200 c0 -18 -6 -26 -23 -28 -13 -2 -25 3 -28 12
-10 26 4 48 28 44 17 -2 23 -10 23 -28z"/>
</g>
</svg>
